{"asset":{"version":"2.0","generator":"Blockbench 4.9.2 glTF exporter"},"scenes":[{"nodes":[1],"name":"blockbench_export"}],"scene":0,"nodes":[{"name":"cube","mesh":0},{"children":[0]}],"bufferViews":[{"buffer":0,"byteOffset":0,"byteLength":1200,"target":34962,"byteStride":12},{"buffer":0,"byteOffset":1200,"byteLength":1200,"target":34962,"byteStride":12},{"buffer":0,"byteOffset":2400,"byteLength":800,"target":34962,"byteStride":8},{"buffer":0,"byteOffset":3200,"byteLength":240,"target":34963}],"buffers":[{"byteLength":3440,"uri":"data:application/octet-stream;base64,"}],"accessors":[{"bufferView":0,"componentType":5126,"count":100,"max":[0.0062500000931322575,1.265625,0.125],"min":[-0.06875000149011612,0.015625,-0.20000000298023224],"type":"VEC3"},{"bufferView":1,"componentType":5126,"count":100,"max":[1,1,1],"min":[-1,-1,-1],"type":"VEC3"},{"bufferView":2,"componentType":5126,"count":100,"max":[0.8930259346961975,0.875],"min":[0,0],"type":"VEC2"},{"bufferView":3,"componentType":5123,"count":120,"max":[99],"min":[0],"type":"SCALAR"}],"materials":[{"pbrMetallicRoughness":{"metallicFactor":0,"roughnessFactor":1,"baseColorTexture":{"index":0}},"alphaMode":"MASK","alphaCutoff":0.05,"doubleSided":true}],"textures":[{"sampler":0,"source":0}],"samplers":[{"magFilter":9728,"minFilter":9728,"wrapS":33071,"wrapT":33071}],"images":[{"mimeType":"image/png"}],"meshes":[{"primitives":[{"mode":4,"attributes":{"POSITION":0,"NORMAL":1,"TEXCOORD_0":2},"indices":3,"material":0}]}]}